<svg xmlns="http://www.w3.org/2000/svg" xmlns:svg="http://www.w3.org/2000/svg" id="svg8" width="22.487" height="32" version="1.1" viewBox="0 0 5.95 8.467"><metadata id="metadata5"/><g id="layer1" transform="translate(-1.2584906,-288.53333)"><path id="path4133" d="m 4.2333317,288.53318 c -1.3729761,0 -2.9748411,0.83907 -2.9748411,2.97484 0,1.44924 2.288355,4.65292 2.9748411,5.49198 0.6102326,-0.83906 2.9748443,-3.96642 2.9748443,-5.49198 0,-2.13577 -1.6018623,-2.97484 -2.9748443,-2.97484 z" style="fill:#31a1ee;fill-opacity:1;stroke-width:.56445432"/><path id="path4625" d="m 6.2376535,291.33675 c -0.00123,-0.21289 -0.1476105,-0.39744 -0.3546105,-0.44711 l -0.4286162,-0.99908 v 0 0 0 c -0.023652,-0.0575 -0.079587,-0.0953 -0.1418441,-0.0956 H 3.154084 c -0.057848,10e-4 -0.110237,0.0344 -0.135677,0.0864 v 0 0 0 l -0.4347833,1.00524 c -0.2081409,0.05 -0.3547955,0.23618 -0.3546105,0.4502 v 1.07925 h 0.308357 v 0.30836 c 0,0.17031 0.1380513,0.30835 0.3083569,0.30835 0.1703056,0 0.3083569,-0.13804 0.3083569,-0.30835 v -0.30836 h 2.1584987 v 0.30836 c 0,0.17031 0.1380513,0.30835 0.3083569,0.30835 0.1703056,0 0.3083569,-0.13804 0.3083569,-0.30835 v -0.30836 h 0.308357 z m -2.9910624,-1.23342 h 1.9734845 l 0.3237748,0.77089 H 2.9228163 Z m -0.400864,1.85014 c -0.1703056,0 -0.3083569,-0.13804 -0.3083569,-0.30835 0,-0.17031 0.1380513,-0.30837 0.3083569,-0.30837 0.1703056,0 0.3083569,0.13806 0.3083569,0.30837 0,0.17031 -0.1380513,0.30835 -0.3083569,0.30835 z m 2.7752125,0 c -0.1703056,0 -0.3083569,-0.13804 -0.3083569,-0.30835 0,-0.17031 0.1380513,-0.30837 0.3083569,-0.30837 0.1703056,0 0.3083569,0.13806 0.3083569,0.30837 0,0.17031 -0.1380513,0.30835 -0.3083569,0.30835 z" style="fill:#fff;stroke-width:.30835694"/></g></svg>